<svg xmlns="http://www.w3.org/2000/svg" width="36" height="36" viewBox="0 0 36 36">
    <path fill="#BCB5B9" fill-rule="evenodd" d="M23.582 26.333l-6.574 2.393a.704.704 0 0 0-.42.898l7.893-2.873a.7.7 0 0 0-.899-.418zm4.38-9.043L22.865 7.163c-2.086-4.146-7.31-6.216-11.669-4.63-4.36 1.588-7.029 6.533-5.962 11.047L7.84 24.613l-.465.17a2.803 2.803 0 0 0-1.673 3.588 2.802 2.802 0 0 0 3.589 1.674l21.049-7.662a2.803 2.803 0 0 0 1.673-3.588 2.802 2.802 0 0 0-3.588-1.674l-.465.17zM21.97 32.134a4.2 4.2 0 0 1-5.383-2.51l7.893-2.873a4.2 4.2 0 0 1-2.51 5.383z"/>
</svg>
