<svg xmlns="http://www.w3.org/2000/svg" xmlns:xlink="http://www.w3.org/1999/xlink" width="36" height="30" viewBox="0 0 36 30">
    <defs>
        <path id="b" d="M0 0h1024v60H0z"/>
        <filter id="a" width="101.4%" height="123.3%" x="-.7%" y="-8.3%" filterUnits="objectBoundingBox">
            <feOffset dy="2" in="SourceAlpha" result="shadowOffsetOuter1"/>
            <feGaussianBlur in="shadowOffsetOuter1" result="shadowBlurOuter1" stdDeviation="2"/>
            <feColorMatrix in="shadowBlurOuter1" values="0 0 0 0 0.341176471 0 0 0 0 0.278431373 0 0 0 0 0.317647059 0 0 0 0.2 0"/>
        </filter>
    </defs>
    <g fill="none" fill-rule="evenodd">
        <g transform="translate(-12 -15)">
            <use fill="#000" filter="url(#a)" xlink:href="#b"/>
            <use fill="#FFF" xlink:href="#b"/>
        </g>
        <path fill="#FDBD39" d="M5.544 20.84l-1.881.687-.101 5.597 6.512-2.379c-2.234-.75-3.865-2.07-4.53-3.905"/>
        <path fill="#F69833" d="M6.529 14.92L0 17.304l3.662 4.223 1.881-.687c-.663-1.83-.254-3.897.985-5.92"/>
        <path fill="#FFCB03" d="M17.513 6.843C9.2 9.88 3.843 16.146 5.544 20.84l30.1-10.998c-1.702-4.693-9.82-6.036-18.131-2.999"/>
        <path fill="#EE6723" d="M23.675 23.839c8.312-3.037 13.68-9.276 11.97-13.997L5.543 20.84c1.712 4.72 9.82 6.036 18.131 2.999"/>
        <path fill="#F69833" d="M35.644 9.842L5.544 20.84c.59 1.625 2.837 2.426 5.99 2.426 3.075 0 7.011-.76 11.114-2.26 8.312-3.036 14.16-7.953 12.996-11.164"/>
        <path fill="#FDBD39" d="M29.653 7.416c-3.074 0-7.01.76-11.113 2.26-8.312 3.037-14.16 7.953-12.996 11.164l30.1-10.998c-.59-1.625-2.837-2.426-5.99-2.426"/>
        <path fill="#EE6723" d="M27.991 27.42c-.886 0-2.192-.8-3.884-2.377-2-1.867-4.292-4.601-6.453-7.699-2.16-3.098-3.936-6.195-5-8.72-1.158-2.753-1.323-4.445-.49-5.03.182-.129.402-.194.653-.194.678 0 1.997.504 4.438 2.907l.053.053-.007.074a32 32 0 0 0-.046.518l-.027.34-.24-.242c-2.629-2.65-3.786-2.935-4.162-2.935a.436.436 0 0 0-.254.065c-.36.253-.384 1.497.74 4.165 1.043 2.48 2.793 5.53 4.926 8.588 2.133 3.058 4.39 5.752 6.355 7.585 2.119 1.977 3.074 2.19 3.386 2.19a.446.446 0 0 0 .26-.068c.381-.268.382-1.6-.87-4.471l-.058-.132.126-.07c.126-.068.247-.136.361-.2l.151-.087.07.16c.888 2.035 1.718 4.621.63 5.386a1.12 1.12 0 0 1-.658.195zm0-.313v.157-.157z"/>
        <path fill="#EE6723" d="M23.877 23.753l-.013.157c-.21 2.6-.763 5.726-2.206 5.853a1.01 1.01 0 0 1-.089.004c-.98 0-1.907-1.404-2.756-4.174-.802-2.62-1.425-6.139-1.754-9.906-.328-3.768-.323-7.34.014-10.062.368-2.965 1.068-4.514 2.08-4.603.03-.002.061-.004.092-.004.711 0 1.782.805 2.88 4.555l-.717.139c-.366-1.254-.765-2.273-1.161-2.973-.367-.648-.723-1.005-1.004-1.005l-.028.001c-.439.039-1.078 1.104-1.434 3.978-.332 2.673-.336 6.192-.012 9.911.325 3.72.938 7.185 1.726 9.758.353 1.153.74 2.103 1.12 2.747.35.595.689.922.954.922l.027-.001c.42-.037 1.212-1.145 1.545-5.044l.736-.253"/>
    </g>
</svg>
